<?xml version="1.0" encoding="UTF-8" standalone="no"?>
<!-- Created with Inkscape (http://www.inkscape.org/) -->

<svg
   width="210mm"
   height="297mm"
   viewBox="0 0 210 297"
   version="1.1"
   id="svg33392"
   inkscape:version="1.1.1 (3bf5ae0d25, 2021-09-20)"
   sodipodi:docname="wine_bottle.svg"
   xmlns:inkscape="http://www.inkscape.org/namespaces/inkscape"
   xmlns:sodipodi="http://sodipodi.sourceforge.net/DTD/sodipodi-0.dtd"
   xmlns="http://www.w3.org/2000/svg"
   xmlns:svg="http://www.w3.org/2000/svg">
  <sodipodi:namedview
     id="namedview33394"
     pagecolor="#ffffff"
     bordercolor="#666666"
     borderopacity="1.0"
     inkscape:pageshadow="2"
     inkscape:pageopacity="0.0"
     inkscape:pagecheckerboard="0"
     inkscape:document-units="mm"
     showgrid="false"
     inkscape:zoom="0.5095679"
     inkscape:cx="396.41429"
     inkscape:cy="248.24955"
     inkscape:window-width="1042"
     inkscape:window-height="721"
     inkscape:window-x="24"
     inkscape:window-y="33"
     inkscape:window-maximized="1"
     inkscape:current-layer="layer1" />
  <defs
     id="defs33389" />
  <g
     inkscape:label="Layer 1"
     inkscape:groupmode="layer"
     id="layer1">
    <g
       id="g33376"
       transform="matrix(0.26458333,0,0,0.26458333,63.141858,37.741685)">
      <path
         style="opacity:0.87298;fill:#e5c462;fill-opacity:1;stroke:#e6c765;stroke-width:0.417088;stroke-miterlimit:4;stroke-dasharray:none;stroke-opacity:1"
         d="m 56.984265,583.38877 c -1.680252,-1.21717 -3.25756,-3.21559 -4.430994,-5.61401 l -1.822023,-3.72408 0.221188,-89.45746 c 0.121653,-49.20161 0.437906,-125.04873 0.702784,-168.54918 0.464623,-76.30437 0.528921,-79.34201 1.82447,-86.19383 2.577418,-13.63129 7.522146,-26.40765 13.993232,-36.15621 4.486391,-6.75866 15.113345,-16.9941 21.463418,-20.67268 0.564059,-0.32676 2.910576,-11.36956 3.530234,-16.61342 l 0.743876,-6.29505 h 26.67567 26.67567 v 2.49801 c 0,3.09847 1.64431,12.76873 2.97855,17.51704 0.91166,3.2444 1.34763,3.78854 5.04858,6.30119 18.03758,12.24609 30.08214,35.6962 33.24175,64.71994 0.42934,3.94387 0.82535,64.45076 1.10922,169.48225 0.40225,148.82802 0.34993,163.5251 -0.58863,165.33406 -1.37461,2.64941 -5.79722,6.57426 -9.09585,8.07212 -2.54978,1.15782 -5.32677,1.21352 -61.16661,1.22706 l -58.495563,0.0142 z"
         id="path31835" />
      <path
         style="opacity:0.87298;fill:#aa4400;fill-opacity:1;stroke:#e6c765;stroke-width:0.240135;stroke-miterlimit:4;stroke-dasharray:none;stroke-opacity:1"
         d="m 93.138432,136.14475 c 0.140818,-7.61574 0.454148,-26.05801 0.69629,-40.982819 l 0.440257,-27.13602 -1.051524,-2.055444 -1.051524,-2.055444 0.323438,-7.716111 0.323438,-7.716111 1.074629,-1.121671 c 0.968827,-1.011237 1.111621,-1.494809 1.450356,-4.911633 l 0.375728,-3.789963 10.5942,-0.287104 c 8.60267,-0.233133 36.76899,-0.05458 37.0585,0.234928 0.0418,0.04178 0.27081,1.659744 0.50897,3.595471 0.37033,3.010116 0.59898,3.7314 1.57981,4.983548 l 1.14681,1.464043 0.3129,7.737325 0.3129,7.737325 -1.01404,1.730329 -1.01404,1.73033 0.44905,31.073373 c 0.24697,17.090358 0.55548,35.631668 0.68557,41.202918 l 0.23652,10.12954 H 119.72953 92.882398 Z"
         id="path32332" />
    </g>
  </g>
</svg>
